{
	"patcher" : 	{
		"fileversion" : 1,
		"appversion" : 		{
			"major" : 8,
			"minor" : 0,
			"revision" : 3,
			"architecture" : "x64",
			"modernui" : 1
		}
,
		"classnamespace" : "box",
		"rect" : [ 67.0, 110.0, 1176.0, 658.0 ],
		"bglocked" : 0,
		"openinpresentation" : 1,
		"default_fontsize" : 12.0,
		"default_fontface" : 0,
		"default_fontname" : "Arial",
		"gridonopen" : 1,
		"gridsize" : [ 15.0, 15.0 ],
		"gridsnaponopen" : 1,
		"objectsnaponopen" : 1,
		"statusbarvisible" : 2,
		"toolbarvisible" : 1,
		"lefttoolbarpinned" : 0,
		"toptoolbarpinned" : 0,
		"righttoolbarpinned" : 0,
		"bottomtoolbarpinned" : 0,
		"toolbars_unpinned_last_save" : 0,
		"tallnewobj" : 0,
		"boxanimatetime" : 200,
		"enablehscroll" : 1,
		"enablevscroll" : 1,
		"devicewidth" : 0.0,
		"description" : "",
		"digest" : "",
		"tags" : "",
		"style" : "",
		"subpatcher_template" : "",
		"boxes" : [ 			{
				"box" : 				{
					"args" : [ 38 ],
					"bgcolor" : [ 0.6000000238, 0.6000000238, 0.6000000238, 1.0 ],
					"bgmode" : 2,
					"border" : 0,
					"clickthrough" : 0,
					"enablehscroll" : 0,
					"enablevscroll" : 0,
					"id" : "obj-24",
					"lockeddragscroll" : 0,
					"maxclass" : "bpatcher",
					"name" : "inputRouter.maxpat",
					"numinlets" : 0,
					"numoutlets" : 0,
					"offset" : [ 0.0, 0.0 ],
					"patching_rect" : [ 980.8504638671875, 514.0, 110.0, 26.0 ],
					"presentation" : 1,
					"presentation_rect" : [ 419.8504638671875, 58.0, 100.0, 25.0 ],
					"viewvisibility" : 1
				}

			}
, 			{
				"box" : 				{
					"args" : [ 37 ],
					"bgcolor" : [ 0.6000000238, 0.6000000238, 0.6000000238, 1.0 ],
					"bgmode" : 2,
					"border" : 0,
					"clickthrough" : 0,
					"enablehscroll" : 0,
					"enablevscroll" : 0,
					"id" : "obj-36",
					"lockeddragscroll" : 0,
					"maxclass" : "bpatcher",
					"name" : "inputRouter.maxpat",
					"numinlets" : 0,
					"numoutlets" : 0,
					"offset" : [ 0.0, 0.0 ],
					"patching_rect" : [ 847.8504638671875, 514.0, 117.0, 26.0 ],
					"presentation" : 1,
					"presentation_rect" : [ 551.8504638671875, 58.0, 100.0, 25.0 ],
					"viewvisibility" : 1
				}

			}
, 			{
				"box" : 				{
					"args" : [ 36 ],
					"bgcolor" : [ 1.0, 0.8000000119, 0.400000006, 1.0 ],
					"bgmode" : 2,
					"border" : 0,
					"clickthrough" : 0,
					"enablehscroll" : 0,
					"enablevscroll" : 0,
					"id" : "obj-19",
					"lockeddragscroll" : 0,
					"maxclass" : "bpatcher",
					"name" : "inputRouter.maxpat",
					"numinlets" : 0,
					"numoutlets" : 0,
					"offset" : [ 0.0, 0.0 ],
					"patching_rect" : [ 1250.8504638671875, 432.0, 110.0, 26.0 ],
					"presentation" : 1,
					"presentation_rect" : [ 410.8504638671875, 285.0, 100.0, 25.0 ],
					"viewvisibility" : 1
				}

			}
, 			{
				"box" : 				{
					"args" : [ 35 ],
					"bgcolor" : [ 1.0, 0.8000000119, 0.400000006, 1.0 ],
					"bgmode" : 2,
					"border" : 0,
					"clickthrough" : 0,
					"enablehscroll" : 0,
					"enablevscroll" : 0,
					"id" : "obj-21",
					"lockeddragscroll" : 0,
					"maxclass" : "bpatcher",
					"name" : "inputRouter.maxpat",
					"numinlets" : 0,
					"numoutlets" : 0,
					"offset" : [ 0.0, 0.0 ],
					"patching_rect" : [ 1119.8504638671875, 432.0, 117.0, 26.0 ],
					"presentation" : 1,
					"presentation_rect" : [ 538.8504638671875, 285.0, 100.0, 25.0 ],
					"viewvisibility" : 1
				}

			}
, 			{
				"box" : 				{
					"args" : [ 34 ],
					"bgcolor" : [ 1.0, 0.8000000119, 0.400000006, 1.0 ],
					"bgmode" : 2,
					"border" : 0,
					"clickthrough" : 0,
					"enablehscroll" : 0,
					"enablevscroll" : 0,
					"id" : "obj-22",
					"lockeddragscroll" : 0,
					"maxclass" : "bpatcher",
					"name" : "inputRouter.maxpat",
					"numinlets" : 0,
					"numoutlets" : 0,
					"offset" : [ 0.0, 0.0 ],
					"patching_rect" : [ 980.8504638671875, 432.0, 110.0, 26.0 ],
					"presentation" : 1,
					"presentation_rect" : [ 472.8504638671875, 324.0, 100.0, 25.0 ],
					"viewvisibility" : 1
				}

			}
, 			{
				"box" : 				{
					"args" : [ 33 ],
					"bgcolor" : [ 1.0, 0.8000000119, 0.400000006, 1.0 ],
					"bgmode" : 2,
					"border" : 0,
					"clickthrough" : 0,
					"enablehscroll" : 0,
					"enablevscroll" : 0,
					"id" : "obj-23",
					"lockeddragscroll" : 0,
					"maxclass" : "bpatcher",
					"name" : "inputRouter.maxpat",
					"numinlets" : 0,
					"numoutlets" : 0,
					"offset" : [ 0.0, 0.0 ],
					"patching_rect" : [ 847.8504638671875, 432.0, 117.0, 26.0 ],
					"presentation" : 1,
					"presentation_rect" : [ 472.8504638671875, 360.0, 100.0, 25.0 ],
					"viewvisibility" : 1
				}

			}
, 			{
				"box" : 				{
					"args" : [ 32 ],
					"bgcolor" : [ 1.0, 0.400000006, 0.400000006, 1.0 ],
					"bgmode" : 2,
					"border" : 0,
					"clickthrough" : 0,
					"enablehscroll" : 0,
					"enablevscroll" : 0,
					"id" : "obj-12",
					"lockeddragscroll" : 0,
					"maxclass" : "bpatcher",
					"name" : "inputRouter.maxpat",
					"numinlets" : 0,
					"numoutlets" : 0,
					"offset" : [ 0.0, 0.0 ],
					"patching_rect" : [ 661.8504638671875, 421.0, 110.0, 26.0 ],
					"presentation" : 1,
					"presentation_rect" : [ 597.8504638671875, 253.0, 100.0, 25.0 ],
					"viewvisibility" : 1
				}

			}
, 			{
				"box" : 				{
					"args" : [ 31 ],
					"bgcolor" : [ 1.0, 0.400000006, 0.400000006, 1.0 ],
					"bgmode" : 2,
					"border" : 0,
					"clickthrough" : 0,
					"enablehscroll" : 0,
					"enablevscroll" : 0,
					"id" : "obj-18",
					"lockeddragscroll" : 0,
					"maxclass" : "bpatcher",
					"name" : "inputRouter.maxpat",
					"numinlets" : 0,
					"numoutlets" : 0,
					"offset" : [ 0.0, 0.0 ],
					"patching_rect" : [ 530.8504638671875, 421.0, 117.0, 26.0 ],
					"presentation" : 1,
					"presentation_rect" : [ 597.8504638671875, 346.0, 100.0, 25.0 ],
					"viewvisibility" : 1
				}

			}
, 			{
				"box" : 				{
					"bgcolor" : [ 0.6000000238, 0.6000000238, 0.6000000238, 1.0 ],
					"fontface" : 1,
					"id" : "obj-10",
					"maxclass" : "comment",
					"numinlets" : 1,
					"numoutlets" : 0,
					"patching_rect" : [ 847.8504638671875, 481.5, 104.0, 20.0 ],
					"presentation" : 1,
					"presentation_rect" : [ 312.0, 31.0, 104.0, 20.0 ],
					"text" : "Subs",
					"textcolor" : [ 0.0, 0.0, 0.0, 1.0 ]
				}

			}
, 			{
				"box" : 				{
					"hint" : "use speaker groups to route and unroute a source to multiple outputs",
					"id" : "obj-34",
					"maxclass" : "hint",
					"numinlets" : 1,
					"numoutlets" : 0,
					"patching_rect" : [ 24.850463999999999, 520.0, 100.0, 20.0 ]
				}

			}
, 			{
				"box" : 				{
					"id" : "obj-40",
					"maxclass" : "newobj",
					"numinlets" : 1,
					"numoutlets" : 1,
					"outlettype" : [ "bang" ],
					"patching_rect" : [ 117.683800000000005, 478.0, 24.0, 22.0 ],
					"text" : "t b"
				}

			}
, 			{
				"box" : 				{
					"appearance" : 1,
					"id" : "obj-39",
					"maxclass" : "live.text",
					"mode" : 0,
					"numinlets" : 1,
					"numoutlets" : 2,
					"outlettype" : [ "", "" ],
					"parameter_enable" : 1,
					"patching_rect" : [ 695.850463999999988, 514.0, 81.0, 17.0 ],
					"saved_attribute_attributes" : 					{
						"valueof" : 						{
							"parameter_mmax" : 1.0,
							"parameter_shortname" : "live.text[116]",
							"parameter_enum" : [ "val1", "val2" ],
							"parameter_type" : 2,
							"parameter_longname" : "live.text[120]"
						}

					}
,
					"text" : "All Off",
					"texton" : "All Sub",
					"varname" : "live.text[7]"
				}

			}
, 			{
				"box" : 				{
					"appearance" : 1,
					"id" : "obj-38",
					"maxclass" : "live.text",
					"numinlets" : 1,
					"numoutlets" : 2,
					"outlettype" : [ "", "" ],
					"parameter_enable" : 1,
					"patching_rect" : [ 607.850463999999988, 514.0, 81.0, 17.0 ],
					"saved_attribute_attributes" : 					{
						"valueof" : 						{
							"parameter_mmax" : 1.0,
							"parameter_shortname" : "live.text[116]",
							"parameter_enum" : [ "val1", "val2" ],
							"parameter_type" : 2,
							"parameter_longname" : "live.text[119]"
						}

					}
,
					"text" : "All Sub",
					"texton" : "All Sub",
					"varname" : "live.text[6]"
				}

			}
, 			{
				"box" : 				{
					"appearance" : 1,
					"id" : "obj-37",
					"maxclass" : "live.text",
					"numinlets" : 1,
					"numoutlets" : 2,
					"outlettype" : [ "", "" ],
					"parameter_enable" : 1,
					"patching_rect" : [ 308.850463999999988, 520.0, 81.0, 17.0 ],
					"saved_attribute_attributes" : 					{
						"valueof" : 						{
							"parameter_mmax" : 1.0,
							"parameter_shortname" : "live.text[116]",
							"parameter_enum" : [ "val1", "val2" ],
							"parameter_type" : 2,
							"parameter_longname" : "live.text[118]"
						}

					}
,
					"text" : "Upper Right",
					"texton" : "Upper Right",
					"varname" : "live.text[2]"
				}

			}
, 			{
				"box" : 				{
					"appearance" : 1,
					"id" : "obj-33",
					"maxclass" : "live.text",
					"numinlets" : 1,
					"numoutlets" : 2,
					"outlettype" : [ "", "" ],
					"parameter_enable" : 1,
					"patching_rect" : [ 502.0, 514.0, 81.0, 17.0 ],
					"saved_attribute_attributes" : 					{
						"valueof" : 						{
							"parameter_mmax" : 1.0,
							"parameter_shortname" : "live.text[116]",
							"parameter_enum" : [ "val1", "val2" ],
							"parameter_type" : 2,
							"parameter_longname" : "live.text[82]"
						}

					}
,
					"text" : "All Right",
					"texton" : "All Right",
					"varname" : "live.text[4]"
				}

			}
, 			{
				"box" : 				{
					"appearance" : 1,
					"id" : "obj-32",
					"maxclass" : "live.text",
					"numinlets" : 1,
					"numoutlets" : 2,
					"outlettype" : [ "", "" ],
					"parameter_enable" : 1,
					"patching_rect" : [ 405.0, 516.0, 81.0, 17.0 ],
					"saved_attribute_attributes" : 					{
						"valueof" : 						{
							"parameter_mmax" : 1.0,
							"parameter_shortname" : "live.text[116]",
							"parameter_enum" : [ "val1", "val2" ],
							"parameter_type" : 2,
							"parameter_longname" : "live.text[81]"
						}

					}
,
					"text" : "All Left",
					"texton" : "All Left",
					"varname" : "live.text[5]"
				}

			}
, 			{
				"box" : 				{
					"appearance" : 1,
					"id" : "obj-30",
					"maxclass" : "live.text",
					"numinlets" : 1,
					"numoutlets" : 2,
					"outlettype" : [ "", "" ],
					"parameter_enable" : 1,
					"patching_rect" : [ 219.850463999999988, 520.0, 81.0, 17.0 ],
					"saved_attribute_attributes" : 					{
						"valueof" : 						{
							"parameter_mmax" : 1.0,
							"parameter_shortname" : "live.text[116]",
							"parameter_enum" : [ "val1", "val2" ],
							"parameter_type" : 2,
							"parameter_longname" : "live.text[117]"
						}

					}
,
					"text" : "Upper Left",
					"texton" : "Upper Left",
					"varname" : "live.text[3]"
				}

			}
, 			{
				"box" : 				{
					"appearance" : 1,
					"id" : "obj-26",
					"maxclass" : "live.text",
					"numinlets" : 1,
					"numoutlets" : 2,
					"outlettype" : [ "", "" ],
					"parameter_enable" : 1,
					"patching_rect" : [ 130.683776999999992, 520.0, 81.0, 17.0 ],
					"saved_attribute_attributes" : 					{
						"valueof" : 						{
							"parameter_mmax" : 1.0,
							"parameter_shortname" : "live.text[116]",
							"parameter_enum" : [ "val1", "val2" ],
							"parameter_type" : 2,
							"parameter_longname" : "live.text[80]"
						}

					}
,
					"text" : "Lower Right",
					"texton" : "Lower Right",
					"varname" : "live.text[1]"
				}

			}
, 			{
				"box" : 				{
					"appearance" : 1,
					"id" : "obj-17",
					"maxclass" : "live.text",
					"numinlets" : 1,
					"numoutlets" : 2,
					"outlettype" : [ "", "" ],
					"parameter_enable" : 1,
					"patching_rect" : [ 43.850464000000002, 520.0, 81.0, 17.0 ],
					"saved_attribute_attributes" : 					{
						"valueof" : 						{
							"parameter_mmax" : 1.0,
							"parameter_shortname" : "live.text[116]",
							"parameter_enum" : [ "val1", "val2" ],
							"parameter_type" : 2,
							"parameter_longname" : "live.text[116]"
						}

					}
,
					"text" : "Lower Left",
					"texton" : "Lower Left",
					"varname" : "lowerleft"
				}

			}
, 			{
				"box" : 				{
					"fontface" : 1,
					"fontsize" : 18.0,
					"id" : "obj-29",
					"maxclass" : "comment",
					"numinlets" : 1,
					"numoutlets" : 0,
					"patching_rect" : [ 268.0, 478.0, 218.0, 27.0 ],
					"text" : "Speaker Groups"
				}

			}
, 			{
				"box" : 				{
					"id" : "obj-20",
					"maxclass" : "newobj",
					"numinlets" : 8,
					"numoutlets" : 0,
					"patcher" : 					{
						"fileversion" : 1,
						"appversion" : 						{
							"major" : 8,
							"minor" : 0,
							"revision" : 3,
							"architecture" : "x64",
							"modernui" : 1
						}
,
						"classnamespace" : "box",
						"rect" : [ 633.0, 944.0, 1170.0, 612.0 ],
						"bglocked" : 0,
						"openinpresentation" : 0,
						"default_fontsize" : 12.0,
						"default_fontface" : 0,
						"default_fontname" : "Arial",
						"gridonopen" : 1,
						"gridsize" : [ 15.0, 15.0 ],
						"gridsnaponopen" : 1,
						"objectsnaponopen" : 1,
						"statusbarvisible" : 2,
						"toolbarvisible" : 1,
						"lefttoolbarpinned" : 0,
						"toptoolbarpinned" : 0,
						"righttoolbarpinned" : 0,
						"bottomtoolbarpinned" : 0,
						"toolbars_unpinned_last_save" : 0,
						"tallnewobj" : 0,
						"boxanimatetime" : 200,
						"enablehscroll" : 1,
						"enablevscroll" : 1,
						"devicewidth" : 0.0,
						"description" : "",
						"digest" : "",
						"tags" : "",
						"style" : "",
						"subpatcher_template" : "",
						"boxes" : [ 							{
								"box" : 								{
									"id" : "obj-30",
									"maxclass" : "newobj",
									"numinlets" : 1,
									"numoutlets" : 2,
									"outlettype" : [ "bang", "int" ],
									"patching_rect" : [ 828.0, 386.0, 30.0, 22.0 ],
									"text" : "t b i"
								}

							}
, 							{
								"box" : 								{
									"id" : "obj-26",
									"maxclass" : "newobj",
									"numinlets" : 1,
									"numoutlets" : 1,
									"outlettype" : [ "bang" ],
									"patching_rect" : [ 791.0, 251.0, 24.0, 22.0 ],
									"text" : "t b"
								}

							}
, 							{
								"box" : 								{
									"comment" : "",
									"id" : "obj-25",
									"index" : 8,
									"maxclass" : "inlet",
									"numinlets" : 0,
									"numoutlets" : 1,
									"outlettype" : [ "" ],
									"patching_rect" : [ 782.0, 210.0, 30.0, 30.0 ]
								}

							}
, 							{
								"box" : 								{
									"id" : "obj-24",
									"maxclass" : "newobj",
									"numinlets" : 1,
									"numoutlets" : 2,
									"outlettype" : [ "int", "int" ],
									"patching_rect" : [ 834.0, 449.0, 30.0, 22.0 ],
									"text" : "t i 0"
								}

							}
, 							{
								"box" : 								{
									"id" : "obj-23",
									"maxclass" : "newobj",
									"numinlets" : 2,
									"numoutlets" : 2,
									"outlettype" : [ "", "" ],
									"patching_rect" : [ 796.0, 359.0, 57.0, 22.0 ],
									"text" : "zl.slice 1"
								}

							}
, 							{
								"box" : 								{
									"id" : "obj-14",
									"maxclass" : "message",
									"numinlets" : 2,
									"numoutlets" : 1,
									"outlettype" : [ "" ],
									"patching_rect" : [ 771.0, 282.0, 114.0, 22.0 ],
									"text" : "getsize outputLevel"
								}

							}
, 							{
								"box" : 								{
									"id" : "obj-11",
									"maxclass" : "newobj",
									"numinlets" : 2,
									"numoutlets" : 4,
									"outlettype" : [ "dictionary", "", "", "" ],
									"patching_rect" : [ 771.0, 332.0, 104.0, 22.0 ],
									"saved_object_attributes" : 									{
										"embed" : 0,
										"parameter_enable" : 0,
										"parameter_mappable" : 0
									}
,
									"text" : "dict currentScene"
								}

							}
, 							{
								"box" : 								{
									"id" : "obj-8",
									"maxclass" : "newobj",
									"numinlets" : 2,
									"numoutlets" : 3,
									"outlettype" : [ "bang", "bang", "int" ],
									"patching_rect" : [ 813.0, 414.0, 40.0, 22.0 ],
									"text" : "uzi"
								}

							}
, 							{
								"box" : 								{
									"id" : "obj-1",
									"maxclass" : "newobj",
									"numinlets" : 2,
									"numoutlets" : 1,
									"outlettype" : [ "" ],
									"patching_rect" : [ 681.0, 140.0, 63.0, 22.0 ],
									"text" : "join"
								}

							}
, 							{
								"box" : 								{
									"id" : "obj-4",
									"maxclass" : "newobj",
									"numinlets" : 1,
									"numoutlets" : 2,
									"outlettype" : [ "allSub", "int" ],
									"patching_rect" : [ 681.0, 100.0, 57.0, 22.0 ],
									"text" : "t allSub i"
								}

							}
, 							{
								"box" : 								{
									"comment" : "",
									"id" : "obj-6",
									"index" : 7,
									"maxclass" : "inlet",
									"numinlets" : 0,
									"numoutlets" : 1,
									"outlettype" : [ "" ],
									"patching_rect" : [ 681.0, 40.0, 30.0, 30.0 ]
								}

							}
, 							{
								"box" : 								{
									"id" : "obj-10",
									"maxclass" : "newobj",
									"numinlets" : 1,
									"numoutlets" : 1,
									"outlettype" : [ "" ],
									"patching_rect" : [ 50.0, 265.0, 162.0, 22.0 ],
									"text" : "sprintf groups::speakers::%s"
								}

							}
, 							{
								"box" : 								{
									"id" : "obj-9",
									"maxclass" : "comment",
									"numinlets" : 1,
									"numoutlets" : 0,
									"patching_rect" : [ 134.0, 322.0, 150.0, 20.0 ],
									"text" : "get the data at the key"
								}

							}
, 							{
								"box" : 								{
									"id" : "obj-7",
									"linecount" : 2,
									"maxclass" : "comment",
									"numinlets" : 1,
									"numoutlets" : 0,
									"patching_rect" : [ 151.0, 386.0, 150.0, 33.0 ],
									"text" : "remove the key from the list"
								}

							}
, 							{
								"box" : 								{
									"id" : "obj-5",
									"maxclass" : "comment",
									"numinlets" : 1,
									"numoutlets" : 0,
									"patching_rect" : [ 175.0, 355.0, 376.0, 20.0 ],
									"text" : "List of speaker groups.  Feel free to add any groups."
								}

							}
, 							{
								"box" : 								{
									"id" : "obj-3",
									"linecount" : 2,
									"maxclass" : "comment",
									"numinlets" : 1,
									"numoutlets" : 0,
									"patching_rect" : [ 786.0, 83.5, 150.0, 33.0 ],
									"text" : "these triggers contain a key and an on or off state"
								}

							}
, 							{
								"box" : 								{
									"id" : "obj-2",
									"linecount" : 2,
									"maxclass" : "comment",
									"numinlets" : 1,
									"numoutlets" : 0,
									"patching_rect" : [ 782.0, 129.0, 150.0, 33.0 ],
									"text" : "These joins just make it look not a mess"
								}

							}
, 							{
								"box" : 								{
									"id" : "obj-44",
									"maxclass" : "newobj",
									"numinlets" : 2,
									"numoutlets" : 1,
									"outlettype" : [ "int" ],
									"patching_rect" : [ 51.5, 473.0, 29.5, 22.0 ],
									"text" : "- 1"
								}

							}
, 							{
								"box" : 								{
									"id" : "obj-36",
									"maxclass" : "newobj",
									"numinlets" : 1,
									"numoutlets" : 0,
									"patching_rect" : [ 51.5, 542.0, 120.0, 22.0 ],
									"text" : "s setSpeakerGroups"
								}

							}
, 							{
								"box" : 								{
									"id" : "obj-35",
									"maxclass" : "newobj",
									"numinlets" : 1,
									"numoutlets" : 1,
									"outlettype" : [ "" ],
									"patching_rect" : [ 51.5, 439.0, 27.0, 22.0 ],
									"text" : "iter"
								}

							}
, 							{
								"box" : 								{
									"id" : "obj-34",
									"maxclass" : "newobj",
									"numinlets" : 2,
									"numoutlets" : 1,
									"outlettype" : [ "" ],
									"patching_rect" : [ 51.5, 508.0, 29.5, 22.0 ],
									"text" : "join"
								}

							}
, 							{
								"box" : 								{
									"id" : "obj-33",
									"maxclass" : "newobj",
									"numinlets" : 1,
									"numoutlets" : 1,
									"outlettype" : [ "" ],
									"patching_rect" : [ 50.0, 320.0, 75.0, 22.0 ],
									"text" : "prepend get"
								}

							}
, 							{
								"box" : 								{
									"id" : "obj-31",
									"maxclass" : "newobj",
									"numinlets" : 1,
									"numoutlets" : 3,
									"outlettype" : [ "", "", "" ],
									"patching_rect" : [ 50.0, 226.0, 43.0, 22.0 ],
									"text" : "unjoin"
								}

							}
, 							{
								"box" : 								{
									"id" : "obj-29",
									"maxclass" : "newobj",
									"numinlets" : 2,
									"numoutlets" : 2,
									"outlettype" : [ "", "" ],
									"patching_rect" : [ 72.666663999999997, 386.0, 57.0, 22.0 ],
									"text" : "zl.slice 1"
								}

							}
, 							{
								"box" : 								{
									"id" : "obj-22",
									"maxclass" : "newobj",
									"numinlets" : 2,
									"numoutlets" : 4,
									"outlettype" : [ "dictionary", "", "", "" ],
									"patching_rect" : [ 50.0, 355.0, 87.0, 22.0 ],
									"saved_object_attributes" : 									{
										"embed" : 0,
										"parameter_enable" : 0,
										"parameter_mappable" : 0
									}
,
									"text" : "dict mixerData"
								}

							}
, 							{
								"box" : 								{
									"id" : "obj-68",
									"maxclass" : "newobj",
									"numinlets" : 2,
									"numoutlets" : 1,
									"outlettype" : [ "" ],
									"patching_rect" : [ 592.0, 140.0, 63.0, 22.0 ],
									"text" : "join"
								}

							}
, 							{
								"box" : 								{
									"id" : "obj-69",
									"maxclass" : "newobj",
									"numinlets" : 1,
									"numoutlets" : 2,
									"outlettype" : [ "allRight", "int" ],
									"patching_rect" : [ 592.0, 100.0, 63.0, 22.0 ],
									"text" : "t allRight i"
								}

							}
, 							{
								"box" : 								{
									"id" : "obj-71",
									"maxclass" : "newobj",
									"numinlets" : 2,
									"numoutlets" : 1,
									"outlettype" : [ "" ],
									"patching_rect" : [ 496.0, 140.0, 55.0, 22.0 ],
									"text" : "join"
								}

							}
, 							{
								"box" : 								{
									"id" : "obj-72",
									"maxclass" : "newobj",
									"numinlets" : 1,
									"numoutlets" : 2,
									"outlettype" : [ "allLeft", "int" ],
									"patching_rect" : [ 496.0, 100.0, 55.0, 22.0 ],
									"text" : "t allLeft i"
								}

							}
, 							{
								"box" : 								{
									"id" : "obj-58",
									"maxclass" : "newobj",
									"numinlets" : 2,
									"numoutlets" : 1,
									"outlettype" : [ "" ],
									"patching_rect" : [ 367.0, 140.0, 82.0, 22.0 ],
									"text" : "join"
								}

							}
, 							{
								"box" : 								{
									"id" : "obj-59",
									"maxclass" : "newobj",
									"numinlets" : 1,
									"numoutlets" : 2,
									"outlettype" : [ "upperRight", "int" ],
									"patching_rect" : [ 367.0, 104.0, 82.0, 22.0 ],
									"text" : "t upperRight i"
								}

							}
, 							{
								"box" : 								{
									"id" : "obj-62",
									"maxclass" : "newobj",
									"numinlets" : 2,
									"numoutlets" : 1,
									"outlettype" : [ "" ],
									"patching_rect" : [ 271.0, 140.0, 74.0, 22.0 ],
									"text" : "join"
								}

							}
, 							{
								"box" : 								{
									"id" : "obj-63",
									"maxclass" : "newobj",
									"numinlets" : 1,
									"numoutlets" : 2,
									"outlettype" : [ "upperLeft", "int" ],
									"patching_rect" : [ 271.0, 104.0, 74.0, 22.0 ],
									"text" : "t upperLeft i"
								}

							}
, 							{
								"box" : 								{
									"id" : "obj-50",
									"maxclass" : "newobj",
									"numinlets" : 2,
									"numoutlets" : 1,
									"outlettype" : [ "" ],
									"patching_rect" : [ 146.0, 140.0, 80.0, 22.0 ],
									"text" : "join"
								}

							}
, 							{
								"box" : 								{
									"id" : "obj-51",
									"maxclass" : "newobj",
									"numinlets" : 1,
									"numoutlets" : 2,
									"outlettype" : [ "lowerRight", "int" ],
									"patching_rect" : [ 146.0, 106.0, 80.0, 22.0 ],
									"text" : "t lowerRight i"
								}

							}
, 							{
								"box" : 								{
									"id" : "obj-38",
									"maxclass" : "newobj",
									"numinlets" : 2,
									"numoutlets" : 1,
									"outlettype" : [ "" ],
									"patching_rect" : [ 50.0, 140.0, 72.0, 22.0 ],
									"text" : "join"
								}

							}
, 							{
								"box" : 								{
									"id" : "obj-37",
									"maxclass" : "newobj",
									"numinlets" : 1,
									"numoutlets" : 2,
									"outlettype" : [ "lowerLeft", "int" ],
									"patching_rect" : [ 50.0, 106.0, 72.0, 22.0 ],
									"text" : "t lowerLeft i"
								}

							}
, 							{
								"box" : 								{
									"comment" : "",
									"id" : "obj-13",
									"index" : 1,
									"maxclass" : "inlet",
									"numinlets" : 0,
									"numoutlets" : 1,
									"outlettype" : [ "" ],
									"patching_rect" : [ 50.0, 40.0, 30.0, 30.0 ]
								}

							}
, 							{
								"box" : 								{
									"comment" : "",
									"id" : "obj-15",
									"index" : 2,
									"maxclass" : "inlet",
									"numinlets" : 0,
									"numoutlets" : 1,
									"outlettype" : [ "" ],
									"patching_rect" : [ 146.0, 40.0, 30.0, 30.0 ]
								}

							}
, 							{
								"box" : 								{
									"comment" : "",
									"id" : "obj-16",
									"index" : 3,
									"maxclass" : "inlet",
									"numinlets" : 0,
									"numoutlets" : 1,
									"outlettype" : [ "" ],
									"patching_rect" : [ 271.0, 40.0, 30.0, 30.0 ]
								}

							}
, 							{
								"box" : 								{
									"comment" : "",
									"id" : "obj-17",
									"index" : 4,
									"maxclass" : "inlet",
									"numinlets" : 0,
									"numoutlets" : 1,
									"outlettype" : [ "" ],
									"patching_rect" : [ 367.0, 40.0, 30.0, 30.0 ]
								}

							}
, 							{
								"box" : 								{
									"comment" : "",
									"id" : "obj-18",
									"index" : 5,
									"maxclass" : "inlet",
									"numinlets" : 0,
									"numoutlets" : 1,
									"outlettype" : [ "" ],
									"patching_rect" : [ 496.0, 40.0, 30.0, 30.0 ]
								}

							}
, 							{
								"box" : 								{
									"comment" : "",
									"id" : "obj-19",
									"index" : 6,
									"maxclass" : "inlet",
									"numinlets" : 0,
									"numoutlets" : 1,
									"outlettype" : [ "" ],
									"patching_rect" : [ 592.0, 40.0, 30.0, 30.0 ]
								}

							}
 ],
						"lines" : [ 							{
								"patchline" : 								{
									"destination" : [ "obj-31", 0 ],
									"midpoints" : [ 690.5, 193.0, 59.5, 193.0 ],
									"source" : [ "obj-1", 0 ]
								}

							}
, 							{
								"patchline" : 								{
									"destination" : [ "obj-33", 0 ],
									"source" : [ "obj-10", 0 ]
								}

							}
, 							{
								"patchline" : 								{
									"destination" : [ "obj-23", 0 ],
									"source" : [ "obj-11", 1 ]
								}

							}
, 							{
								"patchline" : 								{
									"destination" : [ "obj-37", 0 ],
									"source" : [ "obj-13", 0 ]
								}

							}
, 							{
								"patchline" : 								{
									"destination" : [ "obj-11", 0 ],
									"source" : [ "obj-14", 0 ]
								}

							}
, 							{
								"patchline" : 								{
									"destination" : [ "obj-51", 0 ],
									"source" : [ "obj-15", 0 ]
								}

							}
, 							{
								"patchline" : 								{
									"destination" : [ "obj-63", 0 ],
									"source" : [ "obj-16", 0 ]
								}

							}
, 							{
								"patchline" : 								{
									"destination" : [ "obj-59", 0 ],
									"source" : [ "obj-17", 0 ]
								}

							}
, 							{
								"patchline" : 								{
									"destination" : [ "obj-72", 0 ],
									"source" : [ "obj-18", 0 ]
								}

							}
, 							{
								"patchline" : 								{
									"destination" : [ "obj-69", 0 ],
									"source" : [ "obj-19", 0 ]
								}

							}
, 							{
								"patchline" : 								{
									"destination" : [ "obj-29", 0 ],
									"source" : [ "obj-22", 1 ]
								}

							}
, 							{
								"patchline" : 								{
									"destination" : [ "obj-30", 0 ],
									"source" : [ "obj-23", 1 ]
								}

							}
, 							{
								"patchline" : 								{
									"destination" : [ "obj-34", 1 ],
									"source" : [ "obj-24", 1 ]
								}

							}
, 							{
								"patchline" : 								{
									"destination" : [ "obj-44", 0 ],
									"source" : [ "obj-24", 0 ]
								}

							}
, 							{
								"patchline" : 								{
									"destination" : [ "obj-26", 0 ],
									"source" : [ "obj-25", 0 ]
								}

							}
, 							{
								"patchline" : 								{
									"destination" : [ "obj-14", 0 ],
									"source" : [ "obj-26", 0 ]
								}

							}
, 							{
								"patchline" : 								{
									"destination" : [ "obj-35", 0 ],
									"source" : [ "obj-29", 1 ]
								}

							}
, 							{
								"patchline" : 								{
									"destination" : [ "obj-8", 1 ],
									"source" : [ "obj-30", 1 ]
								}

							}
, 							{
								"patchline" : 								{
									"destination" : [ "obj-8", 0 ],
									"source" : [ "obj-30", 0 ]
								}

							}
, 							{
								"patchline" : 								{
									"destination" : [ "obj-10", 0 ],
									"source" : [ "obj-31", 0 ]
								}

							}
, 							{
								"patchline" : 								{
									"destination" : [ "obj-34", 1 ],
									"source" : [ "obj-31", 1 ]
								}

							}
, 							{
								"patchline" : 								{
									"destination" : [ "obj-22", 0 ],
									"source" : [ "obj-33", 0 ]
								}

							}
, 							{
								"patchline" : 								{
									"destination" : [ "obj-36", 0 ],
									"source" : [ "obj-34", 0 ]
								}

							}
, 							{
								"patchline" : 								{
									"destination" : [ "obj-44", 0 ],
									"source" : [ "obj-35", 0 ]
								}

							}
, 							{
								"patchline" : 								{
									"destination" : [ "obj-38", 1 ],
									"source" : [ "obj-37", 1 ]
								}

							}
, 							{
								"patchline" : 								{
									"destination" : [ "obj-38", 0 ],
									"source" : [ "obj-37", 0 ]
								}

							}
, 							{
								"patchline" : 								{
									"destination" : [ "obj-31", 0 ],
									"midpoints" : [ 59.5, 193.5, 59.5, 193.5 ],
									"source" : [ "obj-38", 0 ]
								}

							}
, 							{
								"patchline" : 								{
									"destination" : [ "obj-1", 1 ],
									"source" : [ "obj-4", 1 ]
								}

							}
, 							{
								"patchline" : 								{
									"destination" : [ "obj-1", 0 ],
									"source" : [ "obj-4", 0 ]
								}

							}
, 							{
								"patchline" : 								{
									"destination" : [ "obj-34", 0 ],
									"source" : [ "obj-44", 0 ]
								}

							}
, 							{
								"patchline" : 								{
									"destination" : [ "obj-31", 0 ],
									"midpoints" : [ 155.5, 193.5, 59.5, 193.5 ],
									"source" : [ "obj-50", 0 ]
								}

							}
, 							{
								"patchline" : 								{
									"destination" : [ "obj-50", 1 ],
									"source" : [ "obj-51", 1 ]
								}

							}
, 							{
								"patchline" : 								{
									"destination" : [ "obj-50", 0 ],
									"source" : [ "obj-51", 0 ]
								}

							}
, 							{
								"patchline" : 								{
									"destination" : [ "obj-31", 0 ],
									"midpoints" : [ 376.5, 193.5, 59.5, 193.5 ],
									"source" : [ "obj-58", 0 ]
								}

							}
, 							{
								"patchline" : 								{
									"destination" : [ "obj-58", 1 ],
									"source" : [ "obj-59", 1 ]
								}

							}
, 							{
								"patchline" : 								{
									"destination" : [ "obj-58", 0 ],
									"source" : [ "obj-59", 0 ]
								}

							}
, 							{
								"patchline" : 								{
									"destination" : [ "obj-4", 0 ],
									"source" : [ "obj-6", 0 ]
								}

							}
, 							{
								"patchline" : 								{
									"destination" : [ "obj-31", 0 ],
									"midpoints" : [ 280.5, 193.5, 59.5, 193.5 ],
									"source" : [ "obj-62", 0 ]
								}

							}
, 							{
								"patchline" : 								{
									"destination" : [ "obj-62", 1 ],
									"source" : [ "obj-63", 1 ]
								}

							}
, 							{
								"patchline" : 								{
									"destination" : [ "obj-62", 0 ],
									"source" : [ "obj-63", 0 ]
								}

							}
, 							{
								"patchline" : 								{
									"destination" : [ "obj-31", 0 ],
									"midpoints" : [ 601.5, 193.5, 59.5, 193.5 ],
									"source" : [ "obj-68", 0 ]
								}

							}
, 							{
								"patchline" : 								{
									"destination" : [ "obj-68", 1 ],
									"source" : [ "obj-69", 1 ]
								}

							}
, 							{
								"patchline" : 								{
									"destination" : [ "obj-68", 0 ],
									"source" : [ "obj-69", 0 ]
								}

							}
, 							{
								"patchline" : 								{
									"destination" : [ "obj-31", 0 ],
									"midpoints" : [ 505.5, 193.5, 59.5, 193.5 ],
									"source" : [ "obj-71", 0 ]
								}

							}
, 							{
								"patchline" : 								{
									"destination" : [ "obj-71", 1 ],
									"source" : [ "obj-72", 1 ]
								}

							}
, 							{
								"patchline" : 								{
									"destination" : [ "obj-71", 0 ],
									"source" : [ "obj-72", 0 ]
								}

							}
, 							{
								"patchline" : 								{
									"destination" : [ "obj-24", 0 ],
									"source" : [ "obj-8", 2 ]
								}

							}
 ]
					}
,
					"patching_rect" : [ 43.850464000000002, 580.0, 149.0, 22.0 ],
					"saved_object_attributes" : 					{
						"description" : "",
						"digest" : "",
						"globalpatchername" : "",
						"tags" : ""
					}
,
					"text" : "p speakergroupMessages"
				}

			}
, 			{
				"box" : 				{
					"id" : "obj-5",
					"maxclass" : "message",
					"numinlets" : 2,
					"numoutlets" : 1,
					"outlettype" : [ "" ],
					"patching_rect" : [ 43.850464000000002, 486.0, 37.0, 22.0 ],
					"text" : "set 0"
				}

			}
, 			{
				"box" : 				{
					"id" : "obj-3",
					"maxclass" : "newobj",
					"numinlets" : 1,
					"numoutlets" : 1,
					"outlettype" : [ "bang" ],
					"patching_rect" : [ 43.850464000000002, 460.0, 65.0, 22.0 ],
					"text" : "closebang"
				}

			}
, 			{
				"box" : 				{
					"id" : "obj-31",
					"maxclass" : "comment",
					"numinlets" : 1,
					"numoutlets" : 0,
					"patching_rect" : [ 182.0, 396.0, 150.0, 20.0 ],
					"text" : "MCU 1"
				}

			}
, 			{
				"box" : 				{
					"id" : "obj-28",
					"maxclass" : "comment",
					"numinlets" : 1,
					"numoutlets" : 0,
					"patching_rect" : [ 206.0, 230.0, 150.0, 20.0 ],
					"text" : "MCU 2"
				}

			}
, 			{
				"box" : 				{
					"id" : "obj-25",
					"maxclass" : "comment",
					"numinlets" : 1,
					"numoutlets" : 0,
					"patching_rect" : [ 97.0, 143.0, 150.0, 20.0 ],
					"text" : "MCU 4"
				}

			}
, 			{
				"box" : 				{
					"fontface" : 1,
					"fontsize" : 18.0,
					"id" : "obj-27",
					"maxclass" : "comment",
					"numinlets" : 1,
					"numoutlets" : 0,
					"patching_rect" : [ 5.0, 106.0, 218.0, 27.0 ],
					"text" : "Key"
				}

			}
, 			{
				"box" : 				{
					"args" : [ 30 ],
					"bgcolor" : [ 1.0, 0.400000006, 0.400000006, 1.0 ],
					"bgmode" : 2,
					"border" : 0,
					"clickthrough" : 0,
					"enablehscroll" : 0,
					"enablevscroll" : 0,
					"id" : "obj-14",
					"lockeddragscroll" : 0,
					"maxclass" : "bpatcher",
					"name" : "inputRouter.maxpat",
					"numinlets" : 0,
					"numoutlets" : 0,
					"offset" : [ 0.0, 0.0 ],
					"patching_rect" : [ 391.8504638671875, 421.0, 110.0, 26.0 ],
					"presentation" : 1,
					"presentation_rect" : [ 476.8504638671875, 409.0, 100.0, 25.0 ],
					"viewvisibility" : 1
				}

			}
, 			{
				"box" : 				{
					"args" : [ 29 ],
					"bgcolor" : [ 1.0, 0.400000006, 0.400000006, 1.0 ],
					"bgmode" : 2,
					"border" : 0,
					"clickthrough" : 0,
					"enablehscroll" : 0,
					"enablevscroll" : 0,
					"id" : "obj-16",
					"lockeddragscroll" : 0,
					"maxclass" : "bpatcher",
					"name" : "inputRouter.maxpat",
					"numinlets" : 0,
					"numoutlets" : 0,
					"offset" : [ 0.0, 0.0 ],
					"patching_rect" : [ 258.8504638671875, 421.0, 117.0, 26.0 ],
					"presentation" : 1,
					"presentation_rect" : [ 344.8504638671875, 346.0, 100.0, 25.0 ],
					"viewvisibility" : 1
				}

			}
, 			{
				"box" : 				{
					"bgcolor" : [ 0.995808, 0.800103, 0.399985, 1.0 ],
					"fontface" : 1,
					"id" : "obj-13",
					"maxclass" : "comment",
					"numinlets" : 1,
					"numoutlets" : 0,
					"patching_rect" : [ 844.5, 406.0, 104.0, 20.0 ],
					"presentation" : 1,
					"presentation_rect" : [ 312.0, 4.0, 104.0, 20.0 ],
					"text" : "Upper Tannoys"
				}

			}
, 			{
				"box" : 				{
					"bgcolor" : [ 0.988904, 0.400472, 0.39996, 1.0 ],
					"fontface" : 1,
					"id" : "obj-11",
					"maxclass" : "comment",
					"numinlets" : 1,
					"numoutlets" : 0,
					"patching_rect" : [ 5.0, 396.0, 159.0, 20.0 ],
					"presentation" : 1,
					"presentation_rect" : [ 142.0, 31.0, 159.0, 20.0 ],
					"text" : "Upper Ambisonic Ring"
				}

			}
, 			{
				"box" : 				{
					"args" : [ 28 ],
					"bgcolor" : [ 1.0, 0.400000006, 0.400000006, 1.0 ],
					"bgmode" : 2,
					"border" : 0,
					"clickthrough" : 0,
					"enablehscroll" : 0,
					"enablevscroll" : 0,
					"id" : "obj-1",
					"lockeddragscroll" : 0,
					"maxclass" : "bpatcher",
					"name" : "inputRouter.maxpat",
					"numinlets" : 0,
					"numoutlets" : 0,
					"offset" : [ 0.0, 0.0 ],
					"patching_rect" : [ 138.8504638671875, 421.0, 110.0, 26.0 ],
					"presentation" : 1,
					"presentation_rect" : [ 344.8504638671875, 253.0, 100.0, 25.0 ],
					"viewvisibility" : 1
				}

			}
, 			{
				"box" : 				{
					"args" : [ 27 ],
					"bgcolor" : [ 1.0, 0.400000006, 0.400000006, 1.0 ],
					"bgmode" : 2,
					"border" : 0,
					"clickthrough" : 0,
					"enablehscroll" : 0,
					"enablevscroll" : 0,
					"id" : "obj-6",
					"lockeddragscroll" : 0,
					"maxclass" : "bpatcher",
					"name" : "inputRouter.maxpat",
					"numinlets" : 0,
					"numoutlets" : 0,
					"offset" : [ 0.0, 0.0 ],
					"patching_rect" : [ 7.8504638671875, 421.0, 117.0, 26.0 ],
					"presentation" : 1,
					"presentation_rect" : [ 467.8504638671875, 203.0, 100.0, 25.0 ],
					"viewvisibility" : 1
				}

			}
, 			{
				"box" : 				{
					"args" : [ 26 ],
					"bgcolor" : [ 0.0, 1.0, 1.0, 1.0 ],
					"bgmode" : 2,
					"border" : 0,
					"clickthrough" : 0,
					"enablehscroll" : 0,
					"enablevscroll" : 0,
					"id" : "obj-8",
					"lockeddragscroll" : 0,
					"maxclass" : "bpatcher",
					"name" : "inputRouter.maxpat",
					"numinlets" : 0,
					"numoutlets" : 0,
					"offset" : [ 0.0, 0.0 ],
					"patching_rect" : [ 1088.0, 352.0, 108.0, 26.0 ],
					"presentation" : 1,
					"presentation_rect" : [ 659.0, 181.0, 100.0, 25.0 ],
					"viewvisibility" : 1
				}

			}
, 			{
				"box" : 				{
					"args" : [ 25 ],
					"bgcolor" : [ 0.0, 1.0, 1.0, 1.0 ],
					"bgmode" : 2,
					"border" : 0,
					"clickthrough" : 0,
					"enablehscroll" : 0,
					"enablevscroll" : 0,
					"id" : "obj-9",
					"lockeddragscroll" : 0,
					"maxclass" : "bpatcher",
					"name" : "inputRouter.maxpat",
					"numinlets" : 0,
					"numoutlets" : 0,
					"offset" : [ 0.0, 0.0 ],
					"patching_rect" : [ 973.0, 352.0, 110.683807373046875, 26.0 ],
					"presentation" : 1,
					"presentation_rect" : [ 748.0, 247.0, 100.0, 25.0 ],
					"viewvisibility" : 1
				}

			}
, 			{
				"box" : 				{
					"fontface" : 1,
					"id" : "obj-15",
					"maxclass" : "comment",
					"numinlets" : 1,
					"numoutlets" : 0,
					"patching_rect" : [ 119.0, 68.0, 698.0, 20.0 ],
					"text" : "To create a new input router create this object: [ bpatcher inputRouter @args {speakerNumber} {MCU number} ]"
				}

			}
, 			{
				"box" : 				{
					"id" : "obj-7",
					"linecount" : 3,
					"maxclass" : "comment",
					"numinlets" : 1,
					"numoutlets" : 0,
					"patching_rect" : [ 119.0, 12.0, 592.0, 47.0 ],
					"text" : "This is the \"inputRouter\" bpatcher. It takes an argument for the routing number.  Speakers start at 0, but will display as +1 to avoid confusion from the end user.  The argument for this bpatcher is -2.  To expand the set up, simply add more of these modules (right now up to 48, but this is mutable)"
				}

			}
, 			{
				"box" : 				{
					"args" : [ -2 ],
					"bgcolor" : [ 0.999999, 0.999974, 0.999991, 1.0 ],
					"bgmode" : 2,
					"border" : 0,
					"clickthrough" : 0,
					"enablehscroll" : 0,
					"enablevscroll" : 0,
					"id" : "obj-4",
					"lockeddragscroll" : 0,
					"maxclass" : "bpatcher",
					"name" : "inputRouter.maxpat",
					"numinlets" : 0,
					"numoutlets" : 0,
					"offset" : [ 0.0, 0.0 ],
					"patching_rect" : [ 5.0, 12.0, 108.683807373046875, 52.0 ],
					"viewvisibility" : 1
				}

			}
, 			{
				"box" : 				{
					"bgcolor" : [ 0.400004, 1.0, 0.999202, 1.0 ],
					"fontface" : 1,
					"id" : "obj-123",
					"maxclass" : "comment",
					"numinlets" : 1,
					"numoutlets" : 0,
					"patching_rect" : [ 5.0, 318.0, 159.0, 20.0 ],
					"presentation" : 1,
					"presentation_rect" : [ 142.0, 4.0, 159.0, 20.0 ],
					"text" : "Lower Ambisonic Ring"
				}

			}
, 			{
				"box" : 				{
					"args" : [ 24 ],
					"bgcolor" : [ 0.400004, 1.0, 0.999202, 1.0 ],
					"bgmode" : 2,
					"border" : 0,
					"clickthrough" : 0,
					"enablehscroll" : 0,
					"enablevscroll" : 0,
					"id" : "obj-124",
					"lockeddragscroll" : 0,
					"maxclass" : "bpatcher",
					"name" : "inputRouter.maxpat",
					"numinlets" : 0,
					"numoutlets" : 0,
					"offset" : [ 0.0, 0.0 ],
					"patching_rect" : [ 861.0, 352.0, 110.0, 26.0 ],
					"presentation" : 1,
					"presentation_rect" : [ 748.0, 346.0, 100.0, 25.0 ],
					"viewvisibility" : 1
				}

			}
, 			{
				"box" : 				{
					"args" : [ 23 ],
					"bgcolor" : [ 0.400004, 1.0, 0.999202, 1.0 ],
					"bgmode" : 2,
					"border" : 0,
					"clickthrough" : 0,
					"enablehscroll" : 0,
					"enablevscroll" : 0,
					"id" : "obj-125",
					"lockeddragscroll" : 0,
					"maxclass" : "bpatcher",
					"name" : "inputRouter.maxpat",
					"numinlets" : 0,
					"numoutlets" : 0,
					"offset" : [ 0.0, 0.0 ],
					"patching_rect" : [ 730.0, 352.0, 117.0, 26.0 ],
					"presentation" : 1,
					"presentation_rect" : [ 654.0, 426.0, 100.0, 25.0 ],
					"viewvisibility" : 1
				}

			}
, 			{
				"box" : 				{
					"args" : [ 22 ],
					"bgcolor" : [ 0.400004, 1.0, 0.999202, 1.0 ],
					"bgmode" : 2,
					"border" : 0,
					"clickthrough" : 0,
					"enablehscroll" : 0,
					"enablevscroll" : 0,
					"id" : "obj-126",
					"lockeddragscroll" : 0,
					"maxclass" : "bpatcher",
					"name" : "inputRouter.maxpat",
					"numinlets" : 0,
					"numoutlets" : 0,
					"offset" : [ 0.0, 0.0 ],
					"patching_rect" : [ 610.0, 352.0, 108.0, 26.0 ],
					"presentation" : 1,
					"presentation_rect" : [ 477.0, 452.0, 100.0, 25.0 ],
					"viewvisibility" : 1
				}

			}
, 			{
				"box" : 				{
					"args" : [ 21 ],
					"bgcolor" : [ 0.400004, 1.0, 0.999202, 1.0 ],
					"bgmode" : 2,
					"border" : 0,
					"clickthrough" : 0,
					"enablehscroll" : 0,
					"enablevscroll" : 0,
					"id" : "obj-127",
					"lockeddragscroll" : 0,
					"maxclass" : "bpatcher",
					"name" : "inputRouter.maxpat",
					"numinlets" : 0,
					"numoutlets" : 0,
					"offset" : [ 0.0, 0.0 ],
					"patching_rect" : [ 489.0, 352.0, 110.683807373046875, 26.0 ],
					"presentation" : 1,
					"presentation_rect" : [ 312.0, 421.0, 100.0, 25.0 ],
					"viewvisibility" : 1
				}

			}
, 			{
				"box" : 				{
					"args" : [ 20 ],
					"bgcolor" : [ 0.400004, 1.0, 0.999202, 1.0 ],
					"bgmode" : 2,
					"border" : 0,
					"clickthrough" : 0,
					"enablehscroll" : 0,
					"enablevscroll" : 0,
					"id" : "obj-128",
					"lockeddragscroll" : 0,
					"maxclass" : "bpatcher",
					"name" : "inputRouter.maxpat",
					"numinlets" : 0,
					"numoutlets" : 0,
					"offset" : [ 0.0, 0.0 ],
					"patching_rect" : [ 377.0, 352.0, 110.0, 26.0 ],
					"presentation" : 1,
					"presentation_rect" : [ 200.0, 346.0, 100.0, 25.0 ],
					"viewvisibility" : 1
				}

			}
, 			{
				"box" : 				{
					"args" : [ 19 ],
					"bgcolor" : [ 0.400004, 1.0, 0.999202, 1.0 ],
					"bgmode" : 2,
					"border" : 0,
					"clickthrough" : 0,
					"enablehscroll" : 0,
					"enablevscroll" : 0,
					"id" : "obj-129",
					"lockeddragscroll" : 0,
					"maxclass" : "bpatcher",
					"name" : "inputRouter.maxpat",
					"numinlets" : 0,
					"numoutlets" : 0,
					"offset" : [ 0.0, 0.0 ],
					"patching_rect" : [ 246.0, 352.0, 117.0, 26.0 ],
					"presentation" : 1,
					"presentation_rect" : [ 200.0, 247.0, 100.0, 25.0 ],
					"viewvisibility" : 1
				}

			}
, 			{
				"box" : 				{
					"args" : [ 18 ],
					"bgcolor" : [ 0.400004, 1.0, 0.999202, 1.0 ],
					"bgmode" : 2,
					"border" : 0,
					"clickthrough" : 0,
					"enablehscroll" : 0,
					"enablevscroll" : 0,
					"id" : "obj-130",
					"lockeddragscroll" : 0,
					"maxclass" : "bpatcher",
					"name" : "inputRouter.maxpat",
					"numinlets" : 0,
					"numoutlets" : 0,
					"offset" : [ 0.0, 0.0 ],
					"patching_rect" : [ 126.0, 357.0, 108.0, 26.0 ],
					"presentation" : 1,
					"presentation_rect" : [ 312.0, 185.0, 100.0, 25.0 ],
					"viewvisibility" : 1
				}

			}
, 			{
				"box" : 				{
					"args" : [ 17 ],
					"bgcolor" : [ 0.400004, 1.0, 0.999202, 1.0 ],
					"bgmode" : 2,
					"border" : 0,
					"clickthrough" : 0,
					"enablehscroll" : 0,
					"enablevscroll" : 0,
					"id" : "obj-131",
					"lockeddragscroll" : 0,
					"maxclass" : "bpatcher",
					"name" : "inputRouter.maxpat",
					"numinlets" : 0,
					"numoutlets" : 0,
					"offset" : [ 0.0, 0.0 ],
					"patching_rect" : [ 5.0, 352.0, 110.683807373046875, 26.0 ],
					"presentation" : 1,
					"presentation_rect" : [ 477.0, 152.0, 100.0, 25.0 ],
					"viewvisibility" : 1
				}

			}
, 			{
				"box" : 				{
					"bgcolor" : [ 0.989011, 0.435731, 0.811742, 1.0 ],
					"fontface" : 1,
					"id" : "obj-114",
					"maxclass" : "comment",
					"numinlets" : 1,
					"numoutlets" : 0,
					"patching_rect" : [ 5.0, 230.0, 194.0, 20.0 ],
					"presentation" : 1,
					"presentation_rect" : [ 7.0, 31.0, 121.0, 20.0 ],
					"text" : "Genelec Compass"
				}

			}
, 			{
				"box" : 				{
					"args" : [ 16 ],
					"bgcolor" : [ 0.989011, 0.435731, 0.811742, 1.0 ],
					"bgmode" : 2,
					"border" : 0,
					"clickthrough" : 0,
					"enablehscroll" : 0,
					"enablevscroll" : 0,
					"id" : "obj-115",
					"lockeddragscroll" : 0,
					"maxclass" : "bpatcher",
					"name" : "inputRouter.maxpat",
					"numinlets" : 0,
					"numoutlets" : 0,
					"offset" : [ 0.0, 0.0 ],
					"patching_rect" : [ 861.0, 264.0, 110.0, 26.0 ],
					"presentation" : 1,
					"presentation_rect" : [ 822.0, 159.0, 100.0, 25.0 ],
					"viewvisibility" : 1
				}

			}
, 			{
				"box" : 				{
					"args" : [ 15 ],
					"bgcolor" : [ 0.989011, 0.435731, 0.811742, 1.0 ],
					"bgmode" : 2,
					"border" : 0,
					"clickthrough" : 0,
					"enablehscroll" : 0,
					"enablevscroll" : 0,
					"id" : "obj-116",
					"lockeddragscroll" : 0,
					"maxclass" : "bpatcher",
					"name" : "inputRouter.maxpat",
					"numinlets" : 0,
					"numoutlets" : 0,
					"offset" : [ 0.0, 0.0 ],
					"patching_rect" : [ 730.0, 264.0, 117.0, 26.0 ],
					"presentation" : 1,
					"presentation_rect" : [ 877.0, 316.0, 100.0, 25.0 ],
					"viewvisibility" : 1
				}

			}
, 			{
				"box" : 				{
					"args" : [ 14 ],
					"bgcolor" : [ 0.989011, 0.435731, 0.811742, 1.0 ],
					"bgmode" : 2,
					"border" : 0,
					"clickthrough" : 0,
					"enablehscroll" : 0,
					"enablevscroll" : 0,
					"id" : "obj-117",
					"lockeddragscroll" : 0,
					"maxclass" : "bpatcher",
					"name" : "inputRouter.maxpat",
					"numinlets" : 0,
					"numoutlets" : 0,
					"offset" : [ 0.0, 0.0 ],
					"patching_rect" : [ 610.0, 264.0, 108.0, 26.0 ],
					"presentation" : 1,
					"presentation_rect" : [ 822.0, 459.0, 100.0, 25.0 ],
					"viewvisibility" : 1
				}

			}
, 			{
				"box" : 				{
					"args" : [ 13 ],
					"bgcolor" : [ 0.989011, 0.435731, 0.811742, 1.0 ],
					"bgmode" : 2,
					"border" : 0,
					"clickthrough" : 0,
					"enablehscroll" : 0,
					"enablevscroll" : 0,
					"id" : "obj-118",
					"lockeddragscroll" : 0,
					"maxclass" : "bpatcher",
					"name" : "inputRouter.maxpat",
					"numinlets" : 0,
					"numoutlets" : 0,
					"offset" : [ 0.0, 0.0 ],
					"patching_rect" : [ 489.0, 264.0, 110.683807373046875, 26.0 ],
					"presentation" : 1,
					"presentation_rect" : [ 477.0, 519.0, 100.0, 25.0 ],
					"viewvisibility" : 1
				}

			}
, 			{
				"box" : 				{
					"args" : [ 12 ],
					"bgcolor" : [ 0.989011, 0.435731, 0.811742, 1.0 ],
					"bgmode" : 2,
					"border" : 0,
					"clickthrough" : 0,
					"enablehscroll" : 0,
					"enablevscroll" : 0,
					"id" : "obj-119",
					"lockeddragscroll" : 0,
					"maxclass" : "bpatcher",
					"name" : "inputRouter.maxpat",
					"numinlets" : 0,
					"numoutlets" : 0,
					"offset" : [ 0.0, 0.0 ],
					"patching_rect" : [ 377.0, 264.0, 110.0, 26.0 ],
					"presentation" : 1,
					"presentation_rect" : [ 108.0, 477.0, 100.0, 25.0 ],
					"viewvisibility" : 1
				}

			}
, 			{
				"box" : 				{
					"args" : [ 11 ],
					"bgcolor" : [ 0.989011, 0.435731, 0.811742, 1.0 ],
					"bgmode" : 2,
					"border" : 0,
					"clickthrough" : 0,
					"enablehscroll" : 0,
					"enablevscroll" : 0,
					"id" : "obj-120",
					"lockeddragscroll" : 0,
					"maxclass" : "bpatcher",
					"name" : "inputRouter.maxpat",
					"numinlets" : 0,
					"numoutlets" : 0,
					"offset" : [ 0.0, 0.0 ],
					"patching_rect" : [ 246.0, 262.0, 117.0, 26.0 ],
					"presentation" : 1,
					"presentation_rect" : [ 52.0, 325.0, 100.0, 25.0 ],
					"viewvisibility" : 1
				}

			}
, 			{
				"box" : 				{
					"args" : [ 10 ],
					"bgcolor" : [ 0.989011, 0.435731, 0.811742, 1.0 ],
					"bgmode" : 2,
					"border" : 0,
					"clickthrough" : 0,
					"enablehscroll" : 0,
					"enablevscroll" : 0,
					"id" : "obj-121",
					"lockeddragscroll" : 0,
					"maxclass" : "bpatcher",
					"name" : "inputRouter.maxpat",
					"numinlets" : 0,
					"numoutlets" : 0,
					"offset" : [ 0.0, 0.0 ],
					"patching_rect" : [ 126.0, 264.0, 108.0, 26.0 ],
					"presentation" : 1,
					"presentation_rect" : [ 134.0, 152.0, 100.0, 25.0 ],
					"viewvisibility" : 1
				}

			}
, 			{
				"box" : 				{
					"args" : [ 9 ],
					"bgcolor" : [ 0.989011, 0.435731, 0.811742, 1.0 ],
					"bgmode" : 2,
					"border" : 0,
					"clickthrough" : 0,
					"enablehscroll" : 0,
					"enablevscroll" : 0,
					"id" : "obj-122",
					"lockeddragscroll" : 0,
					"maxclass" : "bpatcher",
					"name" : "inputRouter.maxpat",
					"numinlets" : 0,
					"numoutlets" : 0,
					"offset" : [ 0.0, 0.0 ],
					"patching_rect" : [ 5.0, 264.0, 110.683807373046875, 26.0 ],
					"presentation" : 1,
					"presentation_rect" : [ 477.0, 103.0, 100.0, 25.0 ],
					"viewvisibility" : 1
				}

			}
, 			{
				"box" : 				{
					"bgcolor" : [ 0.130317, 0.999709, 0.502003, 1.0 ],
					"fontface" : 1,
					"id" : "obj-113",
					"maxclass" : "comment",
					"numinlets" : 1,
					"numoutlets" : 0,
					"patching_rect" : [ 5.0, 143.0, 86.8504638671875, 20.0 ],
					"presentation" : 1,
					"presentation_rect" : [ 7.0, 4.0, 124.8504638671875, 20.0 ],
					"text" : "Adam Stereo"
				}

			}
, 			{
				"box" : 				{
					"args" : [ 8 ],
					"bgcolor" : [ 0.130317, 0.999709, 0.502003, 1.0 ],
					"bgmode" : 2,
					"border" : 0,
					"clickthrough" : 0,
					"enablehscroll" : 0,
					"enablevscroll" : 0,
					"id" : "obj-108",
					"lockeddragscroll" : 0,
					"maxclass" : "bpatcher",
					"name" : "inputRouter.maxpat",
					"numinlets" : 0,
					"numoutlets" : 0,
					"offset" : [ 0.0, 0.0 ],
					"patching_rect" : [ 861.0, 177.0, 110.0, 26.0 ],
					"presentation" : 1,
					"presentation_rect" : [ 684.0, 519.0, 100.0, 25.0 ],
					"viewvisibility" : 1
				}

			}
, 			{
				"box" : 				{
					"args" : [ 7 ],
					"bgcolor" : [ 0.130317, 0.999709, 0.502003, 1.0 ],
					"bgmode" : 2,
					"border" : 0,
					"clickthrough" : 0,
					"enablehscroll" : 0,
					"enablevscroll" : 0,
					"id" : "obj-109",
					"lockeddragscroll" : 0,
					"maxclass" : "bpatcher",
					"name" : "inputRouter.maxpat",
					"numinlets" : 0,
					"numoutlets" : 0,
					"offset" : [ 0.0, 0.0 ],
					"patching_rect" : [ 730.0, 177.0, 117.0, 26.0 ],
					"presentation" : 1,
					"presentation_rect" : [ 267.0, 519.0, 100.0, 25.0 ],
					"viewvisibility" : 1
				}

			}
, 			{
				"box" : 				{
					"args" : [ 6 ],
					"bgcolor" : [ 0.130317, 0.999709, 0.502003, 1.0 ],
					"bgmode" : 2,
					"border" : 0,
					"clickthrough" : 0,
					"enablehscroll" : 0,
					"enablevscroll" : 0,
					"id" : "obj-110",
					"lockeddragscroll" : 0,
					"maxclass" : "bpatcher",
					"name" : "inputRouter.maxpat",
					"numinlets" : 0,
					"numoutlets" : 0,
					"offset" : [ 0.0, 0.0 ],
					"patching_rect" : [ 610.0, 177.0, 108.0, 26.0 ],
					"presentation" : 1,
					"presentation_rect" : [ 877.0, 416.0, 100.0, 25.0 ],
					"viewvisibility" : 1
				}

			}
, 			{
				"box" : 				{
					"args" : [ 5 ],
					"bgcolor" : [ 0.130317, 0.999709, 0.502003, 1.0 ],
					"bgmode" : 2,
					"border" : 0,
					"clickthrough" : 0,
					"enablehscroll" : 0,
					"enablevscroll" : 0,
					"id" : "obj-111",
					"lockeddragscroll" : 0,
					"maxclass" : "bpatcher",
					"name" : "inputRouter.maxpat",
					"numinlets" : 0,
					"numoutlets" : 0,
					"offset" : [ 0.0, 0.0 ],
					"patching_rect" : [ 489.0, 177.0, 110.683807373046875, 26.0 ],
					"presentation" : 1,
					"presentation_rect" : [ 52.0, 416.0, 100.0, 25.0 ],
					"viewvisibility" : 1
				}

			}
, 			{
				"box" : 				{
					"args" : [ 4 ],
					"bgcolor" : [ 0.130317, 0.999709, 0.502003, 1.0 ],
					"bgmode" : 2,
					"border" : 0,
					"clickthrough" : 0,
					"enablehscroll" : 0,
					"enablevscroll" : 0,
					"id" : "obj-80",
					"lockeddragscroll" : 0,
					"maxclass" : "bpatcher",
					"name" : "inputRouter.maxpat",
					"numinlets" : 0,
					"numoutlets" : 0,
					"offset" : [ 0.0, 0.0 ],
					"patching_rect" : [ 377.0, 177.0, 110.0, 26.0 ],
					"presentation" : 1,
					"presentation_rect" : [ 877.0, 226.0, 100.0, 25.0 ],
					"viewvisibility" : 1
				}

			}
, 			{
				"box" : 				{
					"args" : [ 3 ],
					"bgcolor" : [ 0.130317, 0.999709, 0.502003, 1.0 ],
					"bgmode" : 2,
					"border" : 0,
					"clickthrough" : 0,
					"enablehscroll" : 0,
					"enablevscroll" : 0,
					"id" : "obj-81",
					"lockeddragscroll" : 0,
					"maxclass" : "bpatcher",
					"name" : "inputRouter.maxpat",
					"numinlets" : 0,
					"numoutlets" : 0,
					"offset" : [ 0.0, 0.0 ],
					"patching_rect" : [ 246.0, 177.0, 117.0, 26.0 ],
					"presentation" : 1,
					"presentation_rect" : [ 52.0, 226.0, 100.0, 25.0 ],
					"viewvisibility" : 1
				}

			}
, 			{
				"box" : 				{
					"args" : [ 2 ],
					"bgcolor" : [ 0.130317, 0.999709, 0.502003, 1.0 ],
					"bgmode" : 2,
					"border" : 0,
					"clickthrough" : 0,
					"enablehscroll" : 0,
					"enablevscroll" : 0,
					"id" : "obj-79",
					"lockeddragscroll" : 0,
					"maxclass" : "bpatcher",
					"name" : "inputRouter.maxpat",
					"numinlets" : 0,
					"numoutlets" : 0,
					"offset" : [ 0.0, 0.0 ],
					"patching_rect" : [ 126.0, 177.0, 108.0, 26.0 ],
					"presentation" : 1,
					"presentation_rect" : [ 684.0, 115.0, 100.0, 25.0 ],
					"viewvisibility" : 1
				}

			}
, 			{
				"box" : 				{
					"args" : [ 1 ],
					"bgcolor" : [ 0.130317, 0.999709, 0.502003, 1.0 ],
					"bgmode" : 2,
					"border" : 0,
					"clickthrough" : 0,
					"enablehscroll" : 0,
					"enablevscroll" : 0,
					"id" : "obj-78",
					"lockeddragscroll" : 0,
					"maxclass" : "bpatcher",
					"name" : "inputRouter.maxpat",
					"numinlets" : 0,
					"numoutlets" : 0,
					"offset" : [ 0.0, 0.0 ],
					"patching_rect" : [ 5.0, 177.0, 110.683807373046875, 26.0 ],
					"presentation" : 1,
					"presentation_rect" : [ 267.0, 115.0, 100.0, 25.0 ],
					"viewvisibility" : 1
				}

			}
 ],
		"lines" : [ 			{
				"patchline" : 				{
					"destination" : [ "obj-20", 0 ],
					"source" : [ "obj-17", 0 ]
				}

			}
, 			{
				"patchline" : 				{
					"destination" : [ "obj-20", 1 ],
					"source" : [ "obj-26", 0 ]
				}

			}
, 			{
				"patchline" : 				{
					"destination" : [ "obj-5", 0 ],
					"source" : [ "obj-3", 0 ]
				}

			}
, 			{
				"patchline" : 				{
					"destination" : [ "obj-20", 2 ],
					"source" : [ "obj-30", 0 ]
				}

			}
, 			{
				"patchline" : 				{
					"destination" : [ "obj-20", 4 ],
					"source" : [ "obj-32", 0 ]
				}

			}
, 			{
				"patchline" : 				{
					"destination" : [ "obj-20", 5 ],
					"source" : [ "obj-33", 0 ]
				}

			}
, 			{
				"patchline" : 				{
					"destination" : [ "obj-20", 3 ],
					"source" : [ "obj-37", 0 ]
				}

			}
, 			{
				"patchline" : 				{
					"destination" : [ "obj-20", 6 ],
					"source" : [ "obj-38", 0 ]
				}

			}
, 			{
				"patchline" : 				{
					"destination" : [ "obj-20", 7 ],
					"order" : 0,
					"source" : [ "obj-39", 0 ]
				}

			}
, 			{
				"patchline" : 				{
					"destination" : [ "obj-40", 0 ],
					"midpoints" : [ 705.350463999999988, 541.0, 797.925232000000051, 541.0, 797.925232000000051, 466.0, 127.183800000000005, 466.0 ],
					"order" : 1,
					"source" : [ "obj-39", 0 ]
				}

			}
, 			{
				"patchline" : 				{
					"destination" : [ "obj-5", 0 ],
					"source" : [ "obj-40", 0 ]
				}

			}
, 			{
				"patchline" : 				{
					"destination" : [ "obj-17", 0 ],
					"order" : 6,
					"source" : [ "obj-5", 0 ]
				}

			}
, 			{
				"patchline" : 				{
					"destination" : [ "obj-26", 0 ],
					"order" : 5,
					"source" : [ "obj-5", 0 ]
				}

			}
, 			{
				"patchline" : 				{
					"destination" : [ "obj-30", 0 ],
					"order" : 4,
					"source" : [ "obj-5", 0 ]
				}

			}
, 			{
				"patchline" : 				{
					"destination" : [ "obj-32", 0 ],
					"order" : 2,
					"source" : [ "obj-5", 0 ]
				}

			}
, 			{
				"patchline" : 				{
					"destination" : [ "obj-33", 0 ],
					"order" : 1,
					"source" : [ "obj-5", 0 ]
				}

			}
, 			{
				"patchline" : 				{
					"destination" : [ "obj-37", 0 ],
					"order" : 3,
					"source" : [ "obj-5", 0 ]
				}

			}
, 			{
				"patchline" : 				{
					"destination" : [ "obj-38", 0 ],
					"order" : 0,
					"source" : [ "obj-5", 0 ]
				}

			}
 ],
		"parameters" : 		{
			"obj-118::obj-11" : [ "live.toggle[62]", "live.toggle", 0 ],
			"obj-129::obj-10" : [ "speakerLevel[63]", "speakerLevel", 0 ],
			"obj-1::obj-11" : [ "live.toggle[70]", "live.toggle", 0 ],
			"obj-121::obj-11" : [ "live.toggle[60]", "live.toggle", 0 ],
			"obj-125::obj-11" : [ "live.toggle[67]", "live.toggle", 0 ],
			"obj-22::obj-10" : [ "speakerLevel[80]", "speakerLevel", 0 ],
			"obj-37" : [ "live.text[118]", "live.text[116]", 0 ],
			"obj-116::obj-11" : [ "live.toggle[63]", "live.toggle", 0 ],
			"obj-4::obj-11" : [ "live.toggle[32]", "live.toggle", 0 ],
			"obj-16::obj-11" : [ "live.toggle[71]", "live.toggle", 0 ],
			"obj-122::obj-10" : [ "speakerLevel[58]", "speakerLevel", 0 ],
			"obj-1::obj-10" : [ "speakerLevel[69]", "speakerLevel", 0 ],
			"obj-12::obj-10" : [ "speakerLevel[75]", "speakerLevel", 0 ],
			"obj-14::obj-11" : [ "live.toggle[72]", "live.toggle", 0 ],
			"obj-124::obj-11" : [ "live.toggle[49]", "live.toggle", 0 ],
			"obj-115::obj-10" : [ "speakerLevel[45]", "speakerLevel", 0 ],
			"obj-80::obj-10" : [ "speakerLevel[55]", "speakerLevel", 0 ],
			"obj-79::obj-10" : [ "speakerLevel[53]", "speakerLevel", 0 ],
			"obj-109::obj-11" : [ "live.toggle[59]", "live.toggle", 0 ],
			"obj-125::obj-10" : [ "speakerLevel[65]", "speakerLevel", 0 ],
			"obj-131::obj-10" : [ "speakerLevel[62]", "speakerLevel", 0 ],
			"obj-120::obj-11" : [ "live.toggle[53]", "live.toggle", 0 ],
			"obj-130::obj-11" : [ "live.toggle[46]", "live.toggle", 0 ],
			"obj-19::obj-11" : [ "live.toggle[82]", "live.toggle", 0 ],
			"obj-78::obj-11" : [ "live.toggle[1]", "live.toggle", 0 ],
			"obj-33" : [ "live.text[82]", "live.text[116]", 0 ],
			"obj-81::obj-11" : [ "live.toggle[58]", "live.toggle", 0 ],
			"obj-39" : [ "live.text[120]", "live.text[116]", 0 ],
			"obj-108::obj-10" : [ "speakerLevel[51]", "speakerLevel", 0 ],
			"obj-117::obj-11" : [ "live.toggle[44]", "live.toggle", 0 ],
			"obj-126::obj-10" : [ "speakerLevel[48]", "speakerLevel", 0 ],
			"obj-111::obj-10" : [ "speakerLevel[56]", "speakerLevel", 0 ],
			"obj-14::obj-10" : [ "speakerLevel[71]", "speakerLevel", 0 ],
			"obj-79::obj-11" : [ "live.toggle[56]", "live.toggle", 0 ],
			"obj-18::obj-10" : [ "speakerLevel[74]", "speakerLevel", 0 ],
			"obj-127::obj-11" : [ "live.toggle[66]", "live.toggle", 0 ],
			"obj-9::obj-11" : [ "live.toggle[68]", "live.toggle", 0 ],
			"obj-8::obj-11" : [ "live.toggle[50]", "live.toggle", 0 ],
			"obj-36::obj-10" : [ "speakerLevel[85]", "speakerLevel", 0 ],
			"obj-120::obj-10" : [ "speakerLevel[59]", "speakerLevel", 0 ],
			"obj-109::obj-10" : [ "speakerLevel[57]", "speakerLevel", 0 ],
			"obj-8::obj-10" : [ "speakerLevel[67]", "speakerLevel", 0 ],
			"obj-32" : [ "live.text[81]", "live.text[116]", 0 ],
			"obj-128::obj-11" : [ "live.toggle[47]", "live.toggle", 0 ],
			"obj-126::obj-11" : [ "live.toggle[48]", "live.toggle", 0 ],
			"obj-30" : [ "live.text[117]", "live.text[116]", 0 ],
			"obj-117::obj-10" : [ "speakerLevel[44]", "speakerLevel", 0 ],
			"obj-21::obj-11" : [ "live.toggle[79]", "live.toggle", 0 ],
			"obj-36::obj-11" : [ "live.toggle[85]", "live.toggle", 0 ],
			"obj-38" : [ "live.text[119]", "live.text[116]", 0 ],
			"obj-131::obj-11" : [ "live.toggle[64]", "live.toggle", 0 ],
			"obj-16::obj-10" : [ "speakerLevel[70]", "speakerLevel", 0 ],
			"obj-26" : [ "live.text[80]", "live.text[116]", 0 ],
			"obj-4::obj-10" : [ "speakerLevel[29]", "speakerLevel", 0 ],
			"obj-121::obj-10" : [ "speakerLevel[52]", "speakerLevel", 0 ],
			"obj-6::obj-11" : [ "live.toggle[69]", "live.toggle", 0 ],
			"obj-19::obj-10" : [ "speakerLevel[82]", "speakerLevel", 0 ],
			"obj-116::obj-10" : [ "speakerLevel[61]", "speakerLevel", 0 ],
			"obj-122::obj-11" : [ "live.toggle[52]", "live.toggle", 0 ],
			"obj-119::obj-11" : [ "live.toggle[77]", "live.toggle", 0 ],
			"obj-6::obj-10" : [ "speakerLevel[68]", "speakerLevel", 0 ],
			"obj-111::obj-11" : [ "live.toggle[57]", "live.toggle", 0 ],
			"obj-12::obj-11" : [ "live.toggle[76]", "live.toggle", 0 ],
			"obj-119::obj-10" : [ "speakerLevel[72]", "speakerLevel", 0 ],
			"obj-17" : [ "live.text[116]", "live.text[116]", 0 ],
			"obj-128::obj-10" : [ "speakerLevel[47]", "speakerLevel", 0 ],
			"obj-23::obj-11" : [ "live.toggle[80]", "live.toggle", 0 ],
			"obj-110::obj-11" : [ "live.toggle[55]", "live.toggle", 0 ],
			"obj-18::obj-11" : [ "live.toggle[75]", "live.toggle", 0 ],
			"obj-81::obj-10" : [ "speakerLevel[54]", "speakerLevel", 0 ],
			"obj-9::obj-10" : [ "speakerLevel[66]", "speakerLevel", 0 ],
			"obj-78::obj-10" : [ "speakerLevel[1]", "speakerLevel", 0 ],
			"obj-127::obj-10" : [ "speakerLevel[64]", "speakerLevel", 0 ],
			"obj-80::obj-11" : [ "live.toggle[54]", "live.toggle", 0 ],
			"obj-22::obj-11" : [ "live.toggle[81]", "live.toggle", 0 ],
			"obj-129::obj-11" : [ "live.toggle[65]", "live.toggle", 0 ],
			"obj-21::obj-10" : [ "speakerLevel[81]", "speakerLevel", 0 ],
			"obj-130::obj-10" : [ "speakerLevel[46]", "speakerLevel", 0 ],
			"obj-24::obj-11" : [ "live.toggle[86]", "live.toggle", 0 ],
			"obj-110::obj-10" : [ "speakerLevel[50]", "speakerLevel", 0 ],
			"obj-108::obj-11" : [ "live.toggle[51]", "live.toggle", 0 ],
			"obj-115::obj-11" : [ "live.toggle[45]", "live.toggle", 0 ],
			"obj-23::obj-10" : [ "speakerLevel[79]", "speakerLevel", 0 ],
			"obj-24::obj-10" : [ "speakerLevel[86]", "speakerLevel", 0 ],
			"obj-124::obj-10" : [ "speakerLevel[49]", "speakerLevel", 0 ],
			"obj-118::obj-10" : [ "speakerLevel[60]", "speakerLevel", 0 ],
			"parameterbanks" : 			{

			}

		}
,
		"dependency_cache" : [ 			{
				"name" : "inputRouter.maxpat",
				"bootpath" : "~/Documents/GitHub/MEIT-Diffusion-System/MIET Diffusion System/patchers",
				"patcherrelativepath" : "../../patchers",
				"type" : "JSON",
				"implicit" : 1
			}
 ],
		"autosave" : 0
	}

}
